<svg xmlns="http://www.w3.org/2000/svg" width="744" height="304"><style>circle,line,polygon,rect{stroke:#000;stroke-width:2;stroke-opacity:1;fill-opacity:1;stroke-linecap:round;stroke-linejoin:miter}text{font-family:Iosevka Fixed,monospace;font-size:14px}rect.backdrop{stroke:none;fill:#fff}.filled{fill:#000}.bg_filled,.nofill{fill:#fff}</style><defs><marker id="arrow" markerHeight="7" markerWidth="7" orient="auto-start-reverse" refX="4" refY="2" viewBox="-2 -2 8 8"><polygon points="0 0 0 4 4 2 0 0"/></marker><marker id="diamond" markerHeight="7" markerWidth="7" orient="auto-start-reverse" refX="4" refY="2" viewBox="-2 -2 8 8"><polygon points="0 2 2 0 4 2 2 4 0 2"/></marker><marker id="circle" markerHeight="7" markerWidth="7" orient="auto-start-reverse" refX="4" refY="4" viewBox="0 0 8 8"><circle cx="4" cy="4" r="2" class="filled"/></marker><marker id="open_circle" markerHeight="7" markerWidth="7" orient="auto-start-reverse" refX="4" refY="4" viewBox="0 0 8 8"><circle cx="4" cy="4" r="2" class="bg_filled"/></marker><marker id="big_open_circle" markerHeight="7" markerWidth="7" orient="auto-start-reverse" refX="4" refY="4" viewBox="0 0 8 8"><circle cx="4" cy="4" r="3" class="bg_filled"/></marker></defs><rect width="744" height="304" x="0" y="0" class="backdrop"/><rect width="168" height="64" x="4" y="216" class="solid nofill" rx="0"/><text x="34" y="252">Neighborhood</text><text x="138" y="252">3</text><rect width="168" height="64" x="188" y="216" class="solid nofill" rx="0"/><text x="218" y="252">Neighborhood</text><text x="322" y="252">4</text><rect width="168" height="64" x="380" y="216" class="solid nofill" rx="0"/><text x="410" y="252">Neighborhood</text><text x="514" y="252">5</text><rect width="168" height="64" x="564" y="216" class="solid nofill" rx="0"/><text x="594" y="252">Neighborhood</text><text x="698" y="252">6</text><text x="306" y="44">Neighborhood</text><text x="410" y="44">0</text><text x="154" y="140">Neighborhood</text><text x="258" y="140">1</text><text x="474" y="140">Neighborhood</text><text x="578" y="140">2</text><g><line x1="276" x2="444" y1="8" y2="8" class="solid"/><line x1="276" x2="276" y1="8" y2="72" class="solid"/><line x1="444" x2="444" y1="8" y2="72" class="solid"/><line x1="204" x2="276" y1="40" y2="40" class="solid"/><line x1="204" x2="204" y1="40" y2="84" class="solid"/><line x1="444" x2="532" y1="40" y2="40" class="solid"/><line x1="532" x2="532" y1="40" y2="84" class="solid"/><line x1="276" x2="444" y1="72" y2="72" class="solid"/><polygon points="200 84 208 84 204 96" class="filled"/><polygon points="528 84 536 84 532 96" class="filled"/></g><g><line x1="124" x2="292" y1="104" y2="104" class="solid"/><line x1="124" x2="124" y1="104" y2="168" class="solid"/><line x1="292" x2="292" y1="104" y2="168" class="solid"/><line x1="124" x2="292" y1="168" y2="168" class="solid"/><line x1="156" x2="156" y1="168" y2="196" class="solid"/><line x1="204" x2="204" y1="168" y2="196" class="solid"/><polygon points="152 196 160 196 156 208" class="filled"/><polygon points="200 196 208 196 204 208" class="filled"/></g><g><line x1="444" x2="612" y1="104" y2="104" class="solid"/><line x1="444" x2="444" y1="104" y2="168" class="solid"/><line x1="612" x2="612" y1="104" y2="168" class="solid"/><line x1="444" x2="612" y1="168" y2="168" class="solid"/><line x1="532" x2="532" y1="168" y2="196" class="solid"/><line x1="580" x2="580" y1="168" y2="196" class="solid"/><polygon points="528 196 536 196 532 208" class="filled"/><polygon points="576 196 584 196 580 208" class="filled"/></g></svg>