<svg xmlns="http://www.w3.org/2000/svg" xmlns:xlink="http://www.w3.org/1999/xlink" width="792" height="432" version="1.1" viewBox="240 216 792 432"><defs><style>@font-face{font-family:&quot;DIN Next&quot;;font-weight:400;src:url(https://whimsical.com/fonts/139e8e25-0eea-4cb4-a5d4-79048803e73d.eot?#iefix);src:url(https://whimsical.com/fonts/139e8e25-0eea-4cb4-a5d4-79048803e73d.eot?#iefix) format(&quot;eot&quot;),url(https://whimsical.com/fonts/094b15e3-94bd-435b-a595-d40edfde661a.woff2) format(&quot;woff2&quot;),url(https://whimsical.com/fonts/7e5fbe11-4858-4bd1-9ec6-a1d9f9d227aa.woff) format(&quot;woff&quot;),url(https://whimsical.com/fonts/0f11eff9-9f05-46f5-9703-027c510065d7.ttf) format(&quot;truetype&quot;),url(https://whimsical.com/fonts/48b61978-3f30-4274-823c-5cdcd1876918.svg#48b61978-3f30-4274-823c-5cdcd1876918) format(&quot;svg&quot;)}@font-face{font-family:&quot;DIN Next&quot;;font-weight:400;font-style:italic;src:url(https://whimsical.com/fonts/df24d5e8-5087-42fd-99b1-b16042d666c8.eot?#iefix);src:url(https://whimsical.com/fonts/df24d5e8-5087-42fd-99b1-b16042d666c8.eot?#iefix) format(&quot;eot&quot;),url(https://whimsical.com/fonts/46251881-ffe9-4bfb-99c7-d6ce3bebaf3e.woff2) format(&quot;woff2&quot;),url(https://whimsical.com/fonts/790ebbf2-62c5-4a32-946f-99d405f9243e.woff) format(&quot;woff&quot;),url(https://whimsical.com/fonts/d28199e6-0f4a-42df-97f4-606701c6f75a.ttf) format(&quot;truetype&quot;),url(https://whimsical.com/fonts/37a462c0-d86e-492c-b9ab-35e6bd417f6c.svg#37a462c0-d86e-492c-b9ab-35e6bd417f6c) format(&quot;svg&quot;)}@font-face{font-weight:500;font-family:&quot;DIN Next&quot;;src:url(https://whimsical.com/fonts/c5b058fc-55ce-4e06-a175-5c7d9a7e90f4.eot?#iefix);src:url(https://whimsical.com/fonts/c5b058fc-55ce-4e06-a175-5c7d9a7e90f4.eot?#iefix) format(&quot;eot&quot;),url(https://whimsical.com/fonts/7b29ae40-30ff-4f99-a2b9-cde88669fa2f.woff2) format(&quot;woff2&quot;),url(https://whimsical.com/fonts/bf73077c-e354-4562-a085-f4703eb1d653.woff) format(&quot;woff&quot;),url(https://whimsical.com/fonts/0ffa6947-5317-4d07-b525-14d08a028821.ttf) format(&quot;truetype&quot;),url(https://whimsical.com/fonts/9e423e45-5450-4991-a157-dbe6cf61eb4e.svg#9e423e45-5450-4991-a157-dbe6cf61eb4e) format(&quot;svg&quot;)}@font-face{font-family:&quot;DIN Next&quot;;font-weight:500;font-style:italic;src:url(https://whimsical.com/fonts/9897c008-fd65-48a4-afc7-36de2fea97b9.eot?#iefix);src:url(https://whimsical.com/fonts/9897c008-fd65-48a4-afc7-36de2fea97b9.eot?#iefix) format(&quot;eot&quot;),url(https://whimsical.com/fonts/c7717981-647d-4b76-8817-33062e42d11f.woff2) format(&quot;woff2&quot;),url(https://whimsical.com/fonts/b852cd4c-1255-40b1-a2be-73a9105b0155.woff) format(&quot;woff&quot;),url(https://whimsical.com/fonts/821b00ad-e741-4e2d-af1a-85594367c8a2.ttf) format(&quot;truetype&quot;),url(https://whimsical.com/fonts/d3e3b689-a6b0-45f2-b279-f5e194f87409.svg#d3e3b689-a6b0-45f2-b279-f5e194f87409) format(&quot;svg&quot;)}@font-face{font-weight:700;font-family:&quot;DIN Next&quot;;src:url(https://whimsical.com/fonts/81cd3b08-fd39-4ae3-8d05-9d24709eba84.eot?#iefix);src:url(https://whimsical.com/fonts/81cd3b08-fd39-4ae3-8d05-9d24709eba84.eot?#iefix) format(&quot;eot&quot;),url(https://whimsical.com/fonts/31704504-4671-47a6-a61e-397f07410d91.woff2) format(&quot;woff2&quot;),url(https://whimsical.com/fonts/b8a280da-481f-44a0-8d9c-1bc64bd7227c.woff) format(&quot;woff&quot;),url(https://whimsical.com/fonts/276d122a-0fab-447b-9fc0-5d7fb0eafce2.ttf) format(&quot;truetype&quot;),url(https://whimsical.com/fonts/8fb8273a-8213-4928-808b-b5bfaf3fd7e9.svg#8fb8273a-8213-4928-808b-b5bfaf3fd7e9) format(&quot;svg&quot;)}@font-face{font-family:&quot;DIN Next&quot;;font-weight:700;font-style:italic;src:url(https://whimsical.com/fonts/00cc6df3-ed32-4004-8dd8-1c576600a408.eot?#iefix);src:url(https://whimsical.com/fonts/00cc6df3-ed32-4004-8dd8-1c576600a408.eot?#iefix) format(&quot;eot&quot;),url(https://whimsical.com/fonts/4132c4c8-680c-4d6d-9251-a2da38503bbd.woff2) format(&quot;woff2&quot;),url(https://whimsical.com/fonts/366401fe-6df4-47be-8f55-8a411cff0dd2.woff) format(&quot;woff&quot;),url(https://whimsical.com/fonts/dbe4f7ba-fc16-44a6-a577-571620e9edaf.ttf) format(&quot;truetype&quot;),url(https://whimsical.com/fonts/f874edca-ee87-4ccf-8b1d-921fbc3c1c36.svg#f874edca-ee87-4ccf-8b1d-921fbc3c1c36) format(&quot;svg&quot;)}@font-face{font-family:&apos;PFDINMonoPro&apos;;src:url(https://whimsical.com/fonts/PFDINMonoPro-Regular.woff) format(&apos;woff&apos;);font-weight:400}@font-face{font-family:&apos;PFDINMonoPro&apos;;src:url(https://whimsical.com/fonts/PFDINMonoPro-Italic.woff) format(&apos;woff&apos;);font-style:italic;font-weight:400}@font-face{font-family:&apos;PFDINMonoPro&apos;;src:url(https://whimsical.com/fonts/PFDINMonoPro-Bold.woff) format(&apos;woff&apos;);font-weight:700}@font-face{font-family:&apos;PFDINMonoPro&apos;;src:url(https://whimsical.com/fonts/PFDINMonoPro-BoldItalic.woff) format(&apos;woff&apos;);font-style:italic;font-weight:700}*{-webkit-font-smoothing:auto;-moz-osx-font-smoothing:auto}@media print{svg{width:100%;height:100%}}</style><g><filter id="white-fill-shadow" height="200%" y="-50%"><feDropShadow dx="0" dy="2" flood-color="#000" flood-opacity=".03" stdDeviation="6"/></filter><filter id="light-gray-fill-shadow" height="200%" y="-50%"><feDropShadow dx="0" dy="2" flood-color="#000" flood-opacity=".09" stdDeviation="6"/></filter><filter id="yellow-fill-shadow" height="200%" y="-50%"><feDropShadow dx="0" dy="2" flood-color="#000" flood-opacity=".12" stdDeviation="6"/></filter><filter id="fill-shadow" height="200%" y="-50%"><feDropShadow dx="0" dy="2" flood-color="#000" flood-opacity=".16" stdDeviation="6"/></filter><filter id="frame-shadow" height="200%" y="-50%"><feDropShadow dx="0" dy="3" flood-color="#000" flood-opacity=".06" stdDeviation="8"/></filter><filter id="button-shadow" height="200%" y="-50%"><feDropShadow dx="0" dy="2" flood-color="#000" flood-opacity=".03" stdDeviation="6"/></filter><filter id="button-hover-shadow" height="200%" y="-50%"><feDropShadow dx="0" dy="2" flood-color="#000" flood-opacity=".08" stdDeviation="6"/></filter><filter id="badge-shadow" height="200%" y="-50%"><feDropShadow dx="0" dy="2" flood-color="#000" flood-opacity=".08" stdDeviation="6"/></filter></g></defs><g><rect width="792" height="432" x="240" y="216" fill="#FFF" filter="url(#white-fill-shadow)" rx="3" ry="3"/><g><rect width="792" height="432" x="240" y="216" fill="#FFF" rx="3" ry="3"/></g><g><g><g class="content"><g><g><g><g><text fill="#293845" hover-props="{}"><tspan x="824" y="360.5" font-family="DIN Next, system-ui, sans-serif" font-size="18" font-style="normal" font-weight="normal">AccountMeta</tspan></text></g></g></g></g></g></g><g><g class="content"><g><g><g><g><text fill="#293845" hover-props="{}"><tspan x="824" y="504.5" font-family="DIN Next, system-ui, sans-serif" font-size="18" font-style="normal" font-weight="normal">AccountMeta</tspan></text></g></g></g></g></g></g><g><g><rect width="221" height="222" x="276" y="378" fill="#d1efec" rx="3" ry="3"/><rect width="221" height="222" x="276" y="378" fill="none" stroke="#1AAE9F" stroke-linecap="round" stroke-linejoin="round" stroke-width="2" rx="3" ry="3"/><g class="content"><g><g><g><g><text fill="#293845" hover-props="{}"><tspan x="340.681" y="408.5" font-family="DIN Next, system-ui, sans-serif" font-size="18" font-style="normal" font-weight="normal">Transaction</tspan></text></g></g></g></g></g></g><g><g><g><rect width="197" height="36" x="288" y="425" fill="#fff" rx="3" ry="3"/><rect width="197" height="36" x="288" y="425" fill="none" stroke="#C3CFD9" stroke-linecap="round" stroke-linejoin="round" stroke-width="2" rx="3" ry="3"/><g class="content"><g><g><g><g><text fill="#293845" hover-props="{}"><tspan x="352.237" y="449.5" font-family="DIN Next, system-ui, sans-serif" font-size="18" font-style="normal" font-weight="normal">Message</tspan></text></g></g></g></g></g></g></g><g><g><rect width="197" height="36" x="288" y="546" fill="#fff" rx="3" ry="3"/><rect width="197" height="36" x="288" y="546" fill="none" stroke="#C3CFD9" stroke-linecap="round" stroke-linejoin="round" stroke-width="2" rx="3" ry="3"/><g class="content"><g><g><g><g><text fill="#293845" hover-props="{}"><tspan x="356.656" y="570.5" font-family="DIN Next, system-ui, sans-serif" font-size="18" font-style="normal" font-weight="normal">Signers</tspan></text></g></g></g></g></g></g></g><g><g><rect width="185" height="36" x="300" y="461" fill="#F2F5F7" rx="3" ry="3"/><rect width="185" height="36" x="300" y="461" fill="none" stroke="#C3CFD9" stroke-linecap="round" stroke-linejoin="round" stroke-width="2" rx="3" ry="3"/><g class="content"><g><g><g><g><text fill="#293845" hover-props="{}"><tspan x="346.221" y="485.5" font-family="DIN Next, system-ui, sans-serif" font-size="18" font-style="normal" font-weight="normal">Instructions</tspan></text></g></g></g></g></g></g></g><g><g><rect width="185" height="36" x="300" y="497" fill="#F2F5F7" rx="3" ry="3"/><rect width="185" height="36" x="300" y="497" fill="none" stroke="#C3CFD9" stroke-linecap="round" stroke-linejoin="round" stroke-width="2" rx="3" ry="3"/><g class="content"><g><g><g><g><text fill="#293845" hover-props="{}"><tspan x="323.487" y="521.5" font-family="DIN Next, system-ui, sans-serif" font-size="18" font-style="normal" font-weight="normal">Recent Blockhash</tspan></text></g></g></g></g></g></g></g></g></g><g><g><rect width="221" height="192" x="559" y="382" fill="#fff" rx="3" ry="3"/><rect width="221" height="192" x="559" y="382" fill="none" stroke="#C3CFD9" stroke-linecap="round" stroke-linejoin="round" stroke-width="2" rx="3" ry="3"/><g class="content"><g><g><g><g><text fill="#293845" hover-props="{}"><tspan x="627.631" y="412.5" font-family="DIN Next, system-ui, sans-serif" font-size="18" font-style="normal" font-weight="normal">Instruction</tspan></text></g></g></g></g></g></g><g><g><g><rect width="169" height="36" x="587" y="512" fill="#F2F5F7" rx="3" ry="3"/><rect width="169" height="36" x="587" y="512" fill="none" stroke="#C3CFD9" stroke-linecap="round" stroke-linejoin="round" stroke-width="2" rx="3" ry="3"/><g class="content"><g><g><g><g><text fill="#293845" hover-props="{}"><tspan x="599" y="536.5" font-family="DIN Next, system-ui, sans-serif" font-size="18" font-style="normal" font-weight="normal">Transfer Amount</tspan></text></g></g></g></g></g></g></g><g><g><rect width="169" height="36" x="587" y="476" fill="#F2F5F7" rx="3" ry="3"/><rect width="169" height="36" x="587" y="476" fill="none" stroke="#C3CFD9" stroke-linecap="round" stroke-linejoin="round" stroke-width="2" rx="3" ry="3"/><g class="content"><g><g><g><g><text fill="#293845" hover-props="{}"><tspan x="599" y="500.5" font-family="DIN Next, system-ui, sans-serif" font-size="18" font-style="normal" font-weight="normal">Accounts:</tspan></text></g></g></g></g></g></g></g><g><g><rect width="169" height="36" x="587" y="440" fill="#F2F5F7" rx="3" ry="3"/><rect width="169" height="36" x="587" y="440" fill="none" stroke="#C3CFD9" stroke-linecap="round" stroke-linejoin="round" stroke-width="2" rx="3" ry="3"/><g class="content"><g><g><g><g><text fill="#293845" hover-props="{}"><tspan x="599" y="464.5" font-family="DIN Next, system-ui, sans-serif" font-size="18" font-style="normal" font-weight="normal">System Program</tspan></text></g></g></g></g></g></g></g></g></g><g><g><path fill="rgba(0,0,0,0)" d="M547,382c-8.5604,0 -15.5,6.9396 -15.5,15.5c0,8.5604 0,56.4396 0,65c0,8.5604 -6.9396,15.5 -15.5,15.5c-8.5604,0 0,0 0,0c0,0 -8.5604,0 0,0c8.5604,0 15.5,6.9396 15.5,15.5c0,8.5604 0,56.4396 0,65c0,8.5604 6.9396,15.5 15.5,15.5"/><path fill="none" stroke="#788896" stroke-linecap="round" stroke-linejoin="round" stroke-width="2" d="M547,382c-8.5604,0 -15.5,6.9396 -15.5,15.5c0,8.5604 0,56.4396 0,65c0,8.5604 -6.9396,15.5 -15.5,15.5c-8.5604,0 0,0 0,0c0,0 -8.5604,0 0,0c8.5604,0 15.5,6.9396 15.5,15.5c0,8.5604 0,56.4396 0,65c0,8.5604 6.9396,15.5 15.5,15.5"/></g></g><g><g><path fill="rgba(0,0,0,0)" d="M816,366c-6.62741,0 -12,5.37259 -12,12c0,6.62741 0,93.37259 0,100c0,6.62741 -5.37259,12 -12,12c-6.62741,0 0,0 0,0c0,0 -6.62741,0 0,0c6.62741,0 12,5.37259 12,12c0,6.62741 0,93.37259 0,100c0,6.62741 5.37259,12 12,12"/><path fill="none" stroke="#788896" stroke-linecap="round" stroke-linejoin="round" stroke-width="2" d="M816,366c-6.62741,0 -12,5.37259 -12,12c0,6.62741 0,93.37259 0,100c0,6.62741 -5.37259,12 -12,12c-6.62741,0 0,0 0,0c0,0 -6.62741,0 0,0c6.62741,0 12,5.37259 12,12c0,6.62741 0,93.37259 0,100c0,6.62741 5.37259,12 12,12"/></g></g><g><g><rect width="172" height="36" x="824" y="402" fill="#F2F5F7" rx="3" ry="3"/><rect width="172" height="36" x="824" y="402" fill="none" stroke="#C3CFD9" stroke-linecap="round" stroke-linejoin="round" stroke-width="2" rx="3" ry="3"/><g class="content"><g><g><g><g><text fill="#293845" hover-props="{}"><tspan x="836" y="426.5" font-family="DIN Next, system-ui, sans-serif" font-size="18" font-style="normal" font-weight="normal">is_signer: true</tspan></text></g></g></g></g></g></g></g><g><g><rect width="172" height="36" x="824" y="438" fill="#F2F5F7" rx="3" ry="3"/><rect width="172" height="36" x="824" y="438" fill="none" stroke="#C3CFD9" stroke-linecap="round" stroke-linejoin="round" stroke-width="2" rx="3" ry="3"/><g class="content"><g><g><g><g><text fill="#293845" hover-props="{}"><tspan x="836" y="462.5" font-family="DIN Next, system-ui, sans-serif" font-size="18" font-style="normal" font-weight="normal">is_writable: true</tspan></text></g></g></g></g></g></g></g><g><g><rect width="172" height="36" x="824" y="510" fill="#E3E8ED" rx="3" ry="3"/><rect width="172" height="36" x="824" y="510" fill="none" stroke="#9EADBA" stroke-linecap="round" stroke-linejoin="round" stroke-width="2" rx="3" ry="3"/><g class="content"><g><g><g><g><text fill="#293845" hover-props="{}"><tspan x="836" y="534.5" font-family="DIN Next, system-ui, sans-serif" font-size="18" font-style="normal" font-weight="normal">Receiver Address</tspan></text></g></g></g></g></g></g></g><g><g><rect width="172" height="36" x="824" y="546" fill="#F2F5F7" rx="3" ry="3"/><rect width="172" height="36" x="824" y="546" fill="none" stroke="#C3CFD9" stroke-linecap="round" stroke-linejoin="round" stroke-width="2" rx="3" ry="3"/><g class="content"><g><g><g><g><text fill="#293845" hover-props="{}"><tspan x="836" y="570.5" font-family="DIN Next, system-ui, sans-serif" font-size="18" font-style="normal" font-weight="normal">is_signer: false</tspan></text></g></g></g></g></g></g></g><g><g><rect width="172" height="36" x="824" y="582" fill="#F2F5F7" rx="3" ry="3"/><rect width="172" height="36" x="824" y="582" fill="none" stroke="#C3CFD9" stroke-linecap="round" stroke-linejoin="round" stroke-width="2" rx="3" ry="3"/><g class="content"><g><g><g><g><text fill="#293845" hover-props="{}"><tspan x="836" y="606.5" font-family="DIN Next, system-ui, sans-serif" font-size="18" font-style="normal" font-weight="normal">is_writable: true</tspan></text></g></g></g></g></g></g></g><g><g class="content"><g><g><g><g><text fill="#293845" hover-props="{}"><tspan x="276" y="258.5" font-family="DIN Next, system-ui, sans-serif" font-size="18" font-style="normal" font-weight="normal">Address</tspan></text></g></g></g></g></g></g><g><g><rect width="221" height="36" x="276" y="264" fill="#e0defd" rx="3" ry="3"/><rect width="221" height="36" x="276" y="264" fill="none" stroke="#6558F5" stroke-linecap="round" stroke-linejoin="round" stroke-width="2" rx="3" ry="3"/><g class="content"><g><g><g><g><text fill="#293845" hover-props="{}"><tspan x="299.101" y="288.5" font-family="DIN Next, system-ui, sans-serif" font-size="18" font-style="normal" font-weight="normal">Sender Wallet Account</tspan></text></g></g></g></g></g></g></g><g><g><path fill="none" stroke="#788896" stroke-linecap="round" stroke-linejoin="round" stroke-width="4" d="M386.5,309v14M386.5,351v17"/><polygon fill="#788896" stroke="#788896" stroke-linecap="round" stroke-linejoin="round" stroke-width="2" points="392.041 364.908 386.5 372 380.959 364.908"/><g class="content"><g><g><g><g><text fill="#293845" hover-props="{}"><tspan x="322.578" y="343.5" font-family="DIN Next, system-ui, sans-serif" font-size="18" font-style="normal" font-weight="normal">Signs and Sends</tspan></text></g></g></g></g></g></g></g><g><g><rect width="172" height="36" x="824" y="366" fill="#E3E8ED" rx="3" ry="3"/><rect width="172" height="36" x="824" y="366" fill="none" stroke="#9EADBA" stroke-linecap="round" stroke-linejoin="round" stroke-width="2" rx="3" ry="3"/><g class="content"><g><g><g><g><text fill="#293845" hover-props="{}"><tspan x="836" y="390.5" font-family="DIN Next, system-ui, sans-serif" font-size="18" font-style="normal" font-weight="normal">Sender Address</tspan></text></g></g></g></g></g></g></g><g><g class="content"><g><g><g><g><text fill="#293845" hover-props="{}"><tspan x="571" y="372.5" font-family="DIN Next, system-ui, sans-serif" font-size="18" font-style="normal" font-weight="normal">SOL Transfer Instruction</tspan></text></g></g></g></g></g></g></g></g></svg>